#N canvas 2 177 1351 675 10;
#X obj 146 91 adc~;
#X obj 146 378 dac~;
#X obj 171 201 clip~ -0.5 0.5;
#X obj 172 313 clip~ -0.5 0.5;
#X obj 172 272 *~;
#X obj 427 78 r audio_on_off;
#X msg 427 181 \; pd dsp \$1 \;;
#X obj 608 190 s audio_on_off;
#X obj 171 169 *~;
#X obj 248 78 r mix1;
#X floatatom 206 131 5 0 0 0 - - -, f 5;
#X floatatom 285 229 5 0 0 0 - - -, f 5;
#X obj 308 181 r mix2;
#X obj 758 133 route 0;
#X obj 906 181 s mix2;
#X obj 909 133 route 0;
#X obj 755 181 s mix1;
#X obj 608 124 route 0;
#X obj 608 86 netreceive 3400;
#X obj 760 93 netreceive 3300;
#X obj 909 98 netreceive 3200;
#X connect 0 0 1 0;
#X connect 0 0 8 0;
#X connect 2 0 4 0;
#X connect 3 0 1 0;
#X connect 4 0 3 0;
#X connect 5 0 6 0;
#X connect 8 0 2 0;
#X connect 9 0 10 0;
#X connect 10 0 8 1;
#X connect 11 0 4 1;
#X connect 12 0 11 0;
#X connect 13 0 16 0;
#X connect 15 0 14 0;
#X connect 17 0 7 0;
#X connect 18 0 17 0;
#X connect 19 0 13 0;
#X connect 20 0 15 0;
