#N canvas 2 207 1351 675 10;
#X obj 148 60 adc~;
#X obj 151 503 dac~;
#X obj 427 78 r audio_on_off;
#X msg 427 181 \; pd dsp \$1 \;;
#X obj 608 190 s audio_on_off;
#X obj 758 133 route 0;
#X obj 906 181 s mix2;
#X obj 909 133 route 0;
#X obj 755 181 s mix1;
#X obj 608 124 route 0;
#X obj 608 86 netreceive 3400;
#X obj 760 93 netreceive 3300;
#X obj 909 98 netreceive 3200;
#X obj 148 289 clip~ -1 1;
#X obj 138 248 *~ 1000;
#X obj 305 234 env~;
#X obj 305 255 dbtorms;
#X obj 211 190 hsl 128 15 1 20000 0 0 empty empty empty -2 -8 0 10
-262144 -1 -1 0 1;
#X floatatom 209 236 10 0 0 0 - - -, f 10;
#X obj 148 349 *~ 1;
#X obj 305 278 * 1.4142;
#X obj 283 461 hsl 128 15 0 100 0 0 empty empty empty -2 -8 0 10 -262144
-1 -1 0 1;
#X floatatom 283 509 5 0 0 0 - - -, f 5;
#X floatatom 91 -3 5 0 0 0 - - -, f 5;
#X obj 153 475 *~ 1;
#X obj 237 118 r mix1;
#X obj 295 391 r mix2;
#X obj 145 401 clip~ -1 1;
#X connect 0 0 14 0;
#X connect 0 0 15 0;
#X connect 2 0 3 0;
#X connect 5 0 8 0;
#X connect 7 0 6 0;
#X connect 9 0 4 0;
#X connect 10 0 9 0;
#X connect 11 0 5 0;
#X connect 12 0 7 0;
#X connect 13 0 19 0;
#X connect 14 0 13 0;
#X connect 15 0 16 0;
#X connect 16 0 20 0;
#X connect 17 0 14 1;
#X connect 17 0 18 0;
#X connect 19 0 27 0;
#X connect 20 0 19 1;
#X connect 21 0 22 0;
#X connect 21 0 24 1;
#X connect 24 0 1 0;
#X connect 25 0 17 0;
#X connect 26 0 21 0;
#X connect 27 0 24 0;
