#N canvas 2 111 1351 675 10;
#X obj 22 11 adc~;
#X obj 21 592 dac~;
#X msg 859 187 \; pd dsp \$1 \;;
#X obj 1023 260 s mix2;
#X obj 971 222 s mix1;
#X obj 861 147 route 0;
#X obj 861 109 netreceive 3400;
#X obj 1013 116 netreceive 3300;
#X obj 1162 121 netreceive 3200;
#X obj 209 130 env~;
#X obj 209 151 dbtorms;
#X obj 209 174 * 1.4142;
#X obj 165 67 r mix1;
#X obj 1162 156 route 0 1;
#X obj 727 107 netreceive 3500;
#X obj 727 145 route 0 1 2;
#X obj 34 537 *~;
#X obj 57 506 r dist;
#X obj 13 456 *~;
#X obj 35 351 r clean;
#X obj 265 310 freeverb~;
#X msg 320 212 roomsize \$1;
#X msg 431 210 damping \$1;
#X msg 416 274 wet \$1;
#X msg 485 306 dry \$1;
#X obj 484 245 r dry;
#X obj 415 245 r wet;
#X obj 189 532 *~;
#X obj 268 444 r reverb;
#X obj 645 200 s clean;
#X obj 723 207 s dist;
#X obj 786 205 s reverb;
#X obj 1152 204 s dry;
#X obj 1213 206 s wet;
#X floatatom 135 490 5 0 0 0 - - -, f 5;
#X obj 56 155 *~;
#X obj 822 360 route 0 1;
#X obj 822 325 netreceive 3100;
#X obj 812 408 s room;
#X obj 873 410 s damp;
#X obj 320 102 r room;
#X obj 448 109 r damp;
#X obj 132 428 r mix2;
#X obj 55 468 *~;
#X obj 47 204 cyclone/tanh~;
#X obj 87 302 *~ 1;
#X obj 32 77 hip~;
#X obj 30 100 hip~;
#X obj 32 128 hip~;
#X obj 64 419 +~;
#X obj 103 348 *~ 0.5;
#X obj 1013 157 route 0 1 2;
#X obj 1090 262 s hip;
#X floatatom 120 51 5 0 0 0 - - -, f 5;
#X obj 142 19 r hip;
#X connect 0 0 9 0;
#X connect 0 0 18 0;
#X connect 0 0 20 0;
#X connect 0 0 46 0;
#X connect 0 0 49 0;
#X connect 5 0 2 0;
#X connect 6 0 5 0;
#X connect 7 0 51 0;
#X connect 8 0 13 0;
#X connect 9 0 10 0;
#X connect 10 0 11 0;
#X connect 11 0 45 1;
#X connect 12 0 35 1;
#X connect 13 0 32 0;
#X connect 13 1 33 0;
#X connect 14 0 15 0;
#X connect 15 0 29 0;
#X connect 15 1 30 0;
#X connect 15 2 31 0;
#X connect 16 0 1 0;
#X connect 17 0 16 1;
#X connect 18 0 1 0;
#X connect 19 0 18 1;
#X connect 20 0 27 0;
#X connect 21 0 20 0;
#X connect 22 0 20 0;
#X connect 23 0 20 0;
#X connect 24 0 20 0;
#X connect 25 0 24 0;
#X connect 26 0 23 0;
#X connect 27 0 1 0;
#X connect 28 0 27 1;
#X connect 35 0 44 0;
#X connect 36 0 38 0;
#X connect 36 1 39 0;
#X connect 37 0 36 0;
#X connect 40 0 21 0;
#X connect 41 0 22 0;
#X connect 42 0 43 1;
#X connect 42 0 34 0;
#X connect 43 0 16 0;
#X connect 44 0 45 0;
#X connect 45 0 50 0;
#X connect 46 0 47 0;
#X connect 47 0 48 0;
#X connect 48 0 35 0;
#X connect 49 0 43 0;
#X connect 50 0 49 1;
#X connect 51 0 4 0;
#X connect 51 1 3 0;
#X connect 51 2 52 0;
#X connect 53 0 46 1;
#X connect 53 0 47 1;
#X connect 53 0 48 1;
#X connect 54 0 53 0;
